<?xml version="1.0" encoding="iso-8859-1"?>
<!-- Generator: Adobe Illustrator 19.0.0, SVG Export Plug-In . SVG Version: 6.00 Build 0)  -->
<svg version="1.1" id="Layer_1" xmlns="http://www.w3.org/2000/svg" xmlns:xlink="http://www.w3.org/1999/xlink" x="0px" y="0px"
	 viewBox="0 0 512 512" style="enable-background:new 0 0 512 512;" xml:space="preserve">

<g>
	
	<rect x="273.655" y="300.138" style="fill:#625D6B;" width="35.31" height="26.483"/>
</g>
<g>
	<path style="fill:#736F7B;" d="M361.931,335.448h-52.966c-4.875,0-8.828-3.953-8.828-8.828v-35.31h61.793V335.448z"/>
	<path style="fill:#736F7B;" d="M273.655,326.621H26.483c-4.875,0-8.828-3.953-8.828-8.828v-35.31h256V326.621z"/>
</g>
<path style="fill:#625D6B;" d="M273.655,300.138H8.828c-4.875,0-8.828-3.953-8.828-8.828v-8.828c0-4.875,3.953-8.828,8.828-8.828
	h264.828V300.138z"/>
<path style="fill:#FFDC5A;" d="M425.175,254.77l-45.589-7.597l-15.435-38.589c-1.341-3.351-4.587-5.549-8.196-5.549h-46.989
	c-4.875,0-8.828,3.953-8.828,8.828v88.276h132.414v-36.66C432.552,259.162,429.431,255.479,425.175,254.77z"/>
<path style="fill:#8D8A94;" d="M203.034,335.448h44.138c4.875,0,8.828-3.953,8.828-8.828v-8.828c0-4.875-3.953-8.828-8.828-8.828
	h-44.138c-4.875,0-8.828,3.953-8.828,8.828v8.828C194.207,331.496,198.159,335.448,203.034,335.448z"/>
<circle style="fill:#504B5A;" cx="92.69" cy="331.034" r="30.897"/>
<circle style="fill:#DCDBDE;" cx="92.69" cy="331.034" r="17.655"/>
<circle style="fill:#504B5A;" cx="154.483" cy="331.034" r="30.897"/>
<circle style="fill:#DCDBDE;" cx="154.483" cy="331.034" r="17.655"/>
<path style="fill:#625D6B;" d="M348.961,247.172h-35.582c-2.438,0-4.414-1.976-4.414-4.414v-26.483c0-2.438,1.976-4.414,4.414-4.414
	h28.372c1.484,0,2.777,1.01,3.137,2.45l7.211,28.843C352.609,245.195,351.065,247.172,348.961,247.172z"/>
<g>
	<path style="fill:#A7A5AC;" d="M286.897,335.448h-8.828c-2.438,0-4.414-1.976-4.414-4.414V216.276c0-2.438,1.976-4.414,4.414-4.414
		h8.828c2.438,0,4.414,1.976,4.414,4.414v114.759C291.31,333.472,289.334,335.448,286.897,335.448z"/>
	<path style="fill:#A7A5AC;" d="M48.552,335.448h-8.828c-2.438,0-4.414-1.976-4.414-4.414v-35.31c0-2.438,1.976-4.414,4.414-4.414
		h8.828c2.438,0,4.414,1.976,4.414,4.414v35.31C52.966,333.472,50.989,335.448,48.552,335.448z"/>
</g>
<path style="fill:#FFC84B;" d="M353.103,335.448h88.276v-35.31c0-9.751-7.904-17.655-17.655-17.655h-35.31
	c-19.501,0-35.31,15.809-35.31,35.31V335.448z"/>
<path style="fill:#736F7B;" d="M445.793,335.448h-22.069v-17.655h22.069c2.438,0,4.414,1.976,4.414,4.414v8.828
	C450.207,333.472,448.231,335.448,445.793,335.448z"/>
<circle style="fill:#504B5A;" cx="401.655" cy="331.034" r="30.897"/>
<circle style="fill:#DCDBDE;" cx="401.655" cy="331.034" r="17.655"/>

<path style="fill:#625D6B;" d="M356.893,211.862c-1.924,0-3.337,1.809-2.87,3.677l6.89,27.561c0.598,2.393,2.75,4.073,5.217,4.073
	h13.457l-14.124-35.31H356.893z"/>
<g>
</g>
<g>
</g>
<g>
</g>
<g>
</g>
<g>
</g>
<g>
</g>
<g>
</g>
<g>
</g>
<g>
</g>
<g>
</g>
<g>
</g>
<g>
</g>
<g>
</g>
<g>
</g>
<g>
</g>
</svg>
